
<svg xmlns="http://www.w3.org/2000/svg" xmlns:xlink="http://www.w3.org/1999/xlink" version="1.0" x="0" y="0" width="2400" height="785.4163457192469" viewBox="50.81690124511719 86.97828582763673 232.3661975097656 76.04342071533203" preserveAspectRatio="xMidYMid meet" color-interpolation-filters="sRGB"><g><defs><linearGradient id="92" x1="0%" y1="0%" x2="100%" y2="0%"><stop offset="0%" stop-color="#fa71cd"></stop> <stop offset="100%" stop-color="#9b59b6"></stop></linearGradient><linearGradient id="93" x1="0%" y1="0%" x2="100%" y2="0%"><stop offset="0%" stop-color="#f9d423"></stop> <stop offset="100%" stop-color="#f83600"></stop></linearGradient><linearGradient id="94" x1="0%" y1="0%" x2="100%" y2="0%"><stop offset="0%" stop-color="#0064d2"></stop> <stop offset="100%" stop-color="#1cb0f6"></stop></linearGradient><linearGradient id="95" x1="0%" y1="0%" x2="100%" y2="0%"><stop offset="0%" stop-color="#f00978"></stop> <stop offset="100%" stop-color="#3f51b1"></stop></linearGradient><linearGradient id="96" x1="0%" y1="0%" x2="100%" y2="0%"><stop offset="0%" stop-color="#7873f5"></stop> <stop offset="100%" stop-color="#ec77ab"></stop></linearGradient><linearGradient id="97" x1="0%" y1="0%" x2="100%" y2="0%"><stop offset="0%" stop-color="#f9d423"></stop> <stop offset="100%" stop-color="#e14fad"></stop></linearGradient><linearGradient id="98" x1="0%" y1="0%" x2="100%" y2="0%"><stop offset="0%" stop-color="#009efd"></stop> <stop offset="100%" stop-color="#2af598"></stop></linearGradient><linearGradient id="99" x1="0%" y1="0%" x2="100%" y2="0%"><stop offset="0%" stop-color="#ffcc00"></stop> <stop offset="100%" stop-color="#00b140"></stop></linearGradient><linearGradient id="100" x1="0%" y1="0%" x2="100%" y2="0%"><stop offset="0%" stop-color="#d51007"></stop> <stop offset="100%" stop-color="#ff8177"></stop></linearGradient><linearGradient id="102" x1="0%" y1="0%" x2="100%" y2="0%"><stop offset="0%" stop-color="#a2b6df"></stop> <stop offset="100%" stop-color="#0c3483"></stop></linearGradient><linearGradient id="103" x1="0%" y1="0%" x2="100%" y2="0%"><stop offset="0%" stop-color="#7ac5d8"></stop> <stop offset="100%" stop-color="#eea2a2"></stop></linearGradient><linearGradient id="104" x1="0%" y1="0%" x2="100%" y2="0%"><stop offset="0%" stop-color="#00ecbc"></stop> <stop offset="100%" stop-color="#007adf"></stop></linearGradient><linearGradient id="105" x1="0%" y1="0%" x2="100%" y2="0%"><stop offset="0%" stop-color="#b88746"></stop> <stop offset="100%" stop-color="#fdf5a6"></stop></linearGradient></defs><g fill="#333" class="icon-text-wrapper icon-svg-group iconsvg" transform="translate(59.095001220703125,95.25638961791992)"><g class="iconsvg-imagesvg" transform="translate(0,0)" mask="url(#0f9b257f-6353-426a-b4e1-be048525f5ff)"><g><rect fill="#333" fill-opacity="0" stroke-width="2" x="0" y="0" width="60" height="59.487220162201815" class="image-rect"></rect> <svg x="0" y="0" width="60" height="59.487220162201815" filtersec="colorsb6712943859" class="image-svg-svg primary" style="overflow: visible;"><svg xmlns="http://www.w3.org/2000/svg" viewBox="-0.0007252097129821777 0.005351066589355469 83.6407241821289 82.92606353759766"><path d="M26.88 14.35c1.08.07 1.55.83 2.11 1.4q18.59 18.54 37.13 37.1c3.14 3.14 3.13 3.2 0 6.39-2.6 2.67-5.35 5.2-7.86 7.95-1.7 1.86-2.85 1.44-4.44-.16Q36.57 49.65 19.17 32.38c-1.35-1.34-2.66-2.72-4-4-.9-.85-1-1.7-.14-2.57l11.16-11a3.91 3.91 0 0 1 .69-.46z" fill="#5273FF"></path><path d="M54.27 70.61a2.13 2.13 0 0 1-.84 1.52c-3.32 3.24-6.68 6.44-9.92 9.77-1.37 1.41-2.35 1.34-3.69 0Q20.41 62.42.92 43.05c-1.1-1.1-1.3-2-.13-3.12 3.3-3.25 6.59-6.52 9.79-9.86 1.31-1.38 2.36-1.45 3.71-.08q11.46 11.57 23 23.06Q45 60.78 52.78 68.46c.63.63 1.42 1.18 1.49 2.15z" fill="#5273FF"></path><path d="M54.45 12.33a2 2 0 0 1-.86 1.67c-3.46 3.46-6.94 6.89-10.37 10.36-1.11 1.12-2 1.17-3.14 0-3.18-3.25-6.44-6.42-9.65-9.65-2-2-1.9-2.55.06-4.41q4.86-4.6 9.59-9.35C41.17-.18 42-.38 43.14.81c3.49 3.53 7.08 7 10.61 10.43a5.46 5.46 0 0 1 .7 1.09zM83.64 41.56a7.29 7.29 0 0 1-.7 1c-3.57 3.57-7.16 7.11-10.71 10.69a1.8 1.8 0 0 1-3 0c-3.51-3.52-7-7-10.57-10.5a1.53 1.53 0 0 1 0-2.53l10.59-10.5c.79-.79 1.67-1.12 2.6-.21q5.66 5.55 11.3 11.14a3.5 3.5 0 0 1 .49.91zM56 14.51a2.25 2.25 0 0 1 1.66.78c3.61 3.51 7.2 7.05 10.8 10.58.87.85.58 1.59-.18 2.33-3.54 3.49-7.08 7-10.59 10.5-1.11 1.12-1.93 1.08-3.06-.1-3.38-3.52-6.87-6.94-10.36-10.36-.81-.8-1-1.5-.13-2.32 3.57-3.57 7.14-7.15 10.73-10.7a5.79 5.79 0 0 1 1.13-.71z" fill="#2FB4FF"></path></svg></svg> </g><rect v-gra="id" width="72" height="71.48722076416016" transform="translate(-6, -6)" style="pointer-events:none;" fill="url(#OopVzexWkwAFLG56mBSE5)"></rect></g> <g transform="translate(61,11.893610000610352)"><g fill-rule="" class="tp-name iconsvg-namesvg"><g transform="scale(1)"><g><path d="M15.16-30.28L15.16-1.75Q15.16 0.35 12.54 0.35L12.54 0.35Q9.96 0.35 9.96-1.75L9.96-1.75 9.96-30.28 2.32-30.28Q0.74-30.28 0.66-32.51L0.66-32.51Q0.66-34.7 2.32-34.7L2.32-34.7 22.81-34.7Q24.47-34.7 24.38-32.51L24.38-32.51Q24.38-30.28 22.81-30.28L22.81-30.28 15.16-30.28ZM32.82-24.38L32.82-1.84Q32.82 0.26 30.42 0.26L30.42 0.26Q27.97 0.26 27.97-1.84L27.97-1.84 27.97-24.38Q27.97-26.48 30.42-26.48L30.42-26.48Q32.82-26.48 32.82-24.38L32.82-24.38ZM33.74-31.99L33.74-31.99Q33.74-30.59 32.77-29.63 31.81-28.67 30.42-28.67L30.42-28.67Q29.02-28.67 28.03-29.63 27.05-30.59 27.05-31.99L27.05-31.99Q27.05-33.43 28.03-34.39 29.02-35.35 30.42-35.35L30.42-35.35Q31.81-35.35 32.77-34.39 33.74-33.43 33.74-31.99ZM52.44-1.7L52.44-19.01Q52.44-19.58 52.27-20.12 52.09-20.67 51.83-21.15L51.83-21.15Q51.26-22.2 49.47-22.2L49.47-22.2 46.67-22.2Q44.88-22.2 44.27-21.15L44.27-21.15Q43.74-20.15 43.74-19.01L43.74-19.01 43.74-1.7Q43.74 0.35 41.34 0.35L41.34 0.35Q38.85 0.35 38.85-1.7L38.85-1.7 38.85-19.4Q38.85-22.99 41.21-24.65L41.21-24.65Q43.61-26.31 45.88-26.31L45.88-26.31 50.3-26.31Q51.3-26.31 52.53-25.91 53.75-25.52 54.89-24.69L54.89-24.69Q55.98-25.52 57.18-25.91 58.38-26.31 59.48-26.31L59.48-26.31 63.85-26.31Q66.16-26.31 68.48-24.65L68.48-24.65Q70.88-23.03 70.88-19.4L70.88-19.4 70.88-1.7Q70.88 0.35 68.43 0.35L68.43 0.35Q65.99 0.35 65.99-1.7L65.99-1.7 65.99-19.01Q65.99-19.58 65.86-20.15 65.72-20.71 65.38-21.19L65.38-21.19 65.42-21.15Q65.07-21.72 64.54-21.96 64.02-22.2 63.02-22.2L63.02-22.2 60.26-22.2Q58.43-22.2 57.86-21.15L57.86-21.15Q57.29-20.19 57.29-19.01L57.29-19.01 57.29-1.7Q57.29 0.35 54.89 0.35L54.89 0.35Q52.44 0.35 52.44-1.7L52.44-1.7ZM81.19-33.04L81.19-1.7Q81.19 0.35 78.79 0.35L78.79 0.35Q76.34 0.35 76.34-1.7L76.34-1.7 76.34-33.04Q76.34-35.09 78.79-35.09L78.79-35.09Q81.19-35.09 81.19-33.04L81.19-33.04ZM92.03-19.36L92.03-6.99Q92.03-5.94 92.71-5.03 93.39-4.11 95-4.11L95-4.11 100.47-4.11Q102.08-4.11 102.76-4.92 103.44-5.72 103.44-6.77L103.44-6.77 103.44-7.25Q103.44-9.31 105.84-9.31L105.84-9.31Q108.24-9.31 108.24-7.25L108.24-7.25 108.24-6.73Q108.24-4.89 107.65-3.71 107.06-2.53 105.88-1.66L105.88-1.66Q103.57 0 101.25 0L101.25 0 93.91 0Q91.6 0 89.41-1.66L89.41-1.66Q88.36-2.53 87.79-3.87 87.23-5.2 87.23-6.95L87.23-6.95 87.23-19.4Q87.23-22.94 89.41-24.65L89.41-24.65Q90.5-25.43 91.66-25.89 92.82-26.35 93.91-26.35L93.91-26.35 101.25-26.35Q102.3-26.35 103.57-25.94 104.84-25.52 105.93-24.82L105.93-24.82Q106.98-24.08 107.61-22.77 108.24-21.46 108.24-19.66L108.24-19.66 108.24-13.77Q108.24-12.76 107.65-11.97 107.06-11.19 105.49-11.19L105.49-11.19 96.05-11.19Q94.48-11.19 94.39-13.24L94.39-13.24Q94.39-15.29 96.05-15.29L96.05-15.29 103.48-15.29 103.44-19.36Q103.44-20.45 102.76-21.35 102.08-22.24 100.47-22.24L100.47-22.24 95-22.24Q93.39-22.24 92.71-21.35 92.03-20.45 92.03-19.36L92.03-19.36ZM126.12 0L120.39 0Q119.04 0 117.82-0.37 116.59-0.74 115.46-1.44L115.46-1.44 115.46-1.4Q113.31-2.75 113.31-6.38L113.31-6.38 113.31-8.52Q113.31-10.31 113.95-11.65 114.58-12.98 115.72-13.77L115.72-13.77 115.67-13.77Q116.77-14.51 117.99-14.88 119.21-15.25 120.35-15.25L120.35-15.25 130.01-15.25 130.01-19.32Q130.01-20.41 129.33-21.3 128.65-22.2 127.04-22.2L127.04-22.2 121.92-22.2Q120.26-22.2 119.63-21.39 118.99-20.58 118.99-19.49L118.99-19.49 118.99-19.14Q118.99-16.87 116.55-16.87L116.55-16.87Q114.1-16.87 114.1-19.14L114.1-19.14 114.1-19.53Q114.1-21.33 114.73-22.55 115.37-23.77 116.46-24.6L116.46-24.6 116.42-24.6Q117.55-25.35 118.8-25.83 120.04-26.31 121.18-26.31L121.18-26.31 127.82-26.31Q128.91-26.31 130.16-25.83 131.41-25.35 132.5-24.6L132.5-24.6 132.45-24.6Q133.59-23.77 134.2-22.44 134.81-21.11 134.81-19.36L134.81-19.36 134.81-1.84Q134.81 0.26 132.41 0.26L132.41 0.26Q131.93 0.26 131.51 0.22 131.1 0.17 130.77-0.02 130.44-0.22 130.25-0.59 130.05-0.96 130.05-1.57L130.05-1.57 130.01-11.14 121.18-11.14Q120.22-11.14 119.69-10.92 119.17-10.71 118.86-10.23L118.86-10.23Q118.51-9.48 118.36-9.07 118.21-8.65 118.21-8.13L118.21-8.13 118.21-6.42Q118.21-5.29 118.89-4.7 119.56-4.11 121.22-4.11L121.22-4.11 126.12-4.11Q127.73-4.11 127.73-2.05L127.73-2.05Q127.73-1.18 127.34-0.59 126.95 0 126.12 0L126.12 0ZM156.66-1.53L156.66-22.2 148.23-22.2Q146.44-22.2 145.87-21.15L145.87-21.15Q145.26-20.23 145.26-19.01L145.26-19.01 145.26-6.42Q145.26-5.29 145.96-4.7 146.66-4.11 148.27-4.11L148.27-4.11 152.77-4.11Q154.35-4.11 154.35-2.05L154.35-2.05Q154.35-1.18 153.98-0.59 153.61 0 152.77 0L152.77 0 147.49 0Q144.73 0 142.59-1.4L142.59-1.4Q140.45-2.71 140.45-6.38L140.45-6.38 140.45-19.4Q140.45-21.19 141.02-22.51 141.59-23.82 142.81-24.65L142.81-24.65Q145.13-26.31 147.44-26.31L147.44-26.31 156.66-26.31 156.66-32.86Q156.66-34.96 159.07-34.96L159.07-34.96Q161.47-34.96 161.47-32.86L161.47-32.86 161.47-1.84Q161.47 0.26 159.07 0.26L159.07 0.26Q158.15 0.26 157.41-0.07 156.66-0.39 156.66-1.53L156.66-1.53Z" transform="translate(-0.6600000262260437, 35.349998474121094)"></path></g> </g></g> </g></g><defs v-gra="od"></defs><defs v-gra="id"><filter id="1d9652a5-a6d4-490f-9c53-1218853aa99e" filterUnits="userSpaceOnUse"><feColorMatrix type="matrix" values="0 0 0 0 0.99609375  0 0 0 0 0.99609375  0 0 0 0 0.99609375  0 0 0 1 0"></feColorMatrix></filter><linearGradient x1="0" y1="1" x2="0" y2="0" id="OopVzexWkwAFLG56mBSE5"><stop offset="0%" stop-color="#00f2fe"></stop><stop offset="100%" stop-color="#4facfe"></stop></linearGradient><filter id="42443b3f1de60f6b6fd3b6a9844b4764" filterUnits="objectBoundingBox"><feColorMatrix type="matrix" values="0 0 0 0 0.99609375  0 0 0 0 0.99609375  0 0 0 0 0.99609375  0 0 0 1 0"></feColorMatrix></filter></defs><mask v-gra="im" id="0f9b257f-6353-426a-b4e1-be048525f5ff"><g class="iconsvg-imagesvg" filter="url(#1d9652a5-a6d4-490f-9c53-1218853aa99e)"><g><rect fill="#333" fill-opacity="0" stroke-width="2" x="0" y="0" width="60" height="59.487220162201815" class="image-rect"></rect> <svg x="0" y="0" width="60" height="59.487220162201815" filtersec="colorsb6712943859" class="image-svg-svg primary" style="overflow: visible;"><svg xmlns="http://www.w3.org/2000/svg" viewBox="-0.0007252097129821777 0.005351066589355469 83.6407241821289 82.92606353759766"><path d="M26.88 14.35c1.08.07 1.55.83 2.11 1.4q18.59 18.54 37.13 37.1c3.14 3.14 3.13 3.2 0 6.39-2.6 2.67-5.35 5.2-7.86 7.95-1.7 1.86-2.85 1.44-4.44-.16Q36.57 49.65 19.17 32.38c-1.35-1.34-2.66-2.72-4-4-.9-.85-1-1.7-.14-2.57l11.16-11a3.91 3.91 0 0 1 .69-.46z" fill="#5273FF"></path><path d="M54.27 70.61a2.13 2.13 0 0 1-.84 1.52c-3.32 3.24-6.68 6.44-9.92 9.77-1.37 1.41-2.35 1.34-3.69 0Q20.41 62.42.92 43.05c-1.1-1.1-1.3-2-.13-3.12 3.3-3.25 6.59-6.52 9.79-9.86 1.31-1.38 2.36-1.45 3.71-.08q11.46 11.57 23 23.06Q45 60.78 52.78 68.46c.63.63 1.42 1.18 1.49 2.15z" fill="#5273FF"></path><path d="M54.45 12.33a2 2 0 0 1-.86 1.67c-3.46 3.46-6.94 6.89-10.37 10.36-1.11 1.12-2 1.17-3.14 0-3.18-3.25-6.44-6.42-9.65-9.65-2-2-1.9-2.55.06-4.41q4.86-4.6 9.59-9.35C41.17-.18 42-.38 43.14.81c3.49 3.53 7.08 7 10.61 10.43a5.46 5.46 0 0 1 .7 1.09zM83.64 41.56a7.29 7.29 0 0 1-.7 1c-3.57 3.57-7.16 7.11-10.71 10.69a1.8 1.8 0 0 1-3 0c-3.51-3.52-7-7-10.57-10.5a1.53 1.53 0 0 1 0-2.53l10.59-10.5c.79-.79 1.67-1.12 2.6-.21q5.66 5.55 11.3 11.14a3.5 3.5 0 0 1 .49.91zM56 14.51a2.25 2.25 0 0 1 1.66.78c3.61 3.51 7.2 7.05 10.8 10.58.87.85.58 1.59-.18 2.33-3.54 3.49-7.08 7-10.59 10.5-1.11 1.12-1.93 1.08-3.06-.1-3.38-3.52-6.87-6.94-10.36-10.36-.81-.8-1-1.5-.13-2.32 3.57-3.57 7.14-7.15 10.73-10.7a5.79 5.79 0 0 1 1.13-.71z" fill="#2FB4FF"></path></svg></svg> </g></g></mask></g></svg>