
<svg xmlns="http://www.w3.org/2000/svg" xmlns:xlink="http://www.w3.org/1999/xlink" version="1.0" x="0" y="0" width="2400" height="2379.8910103592216" viewBox="139.4 94.65638580322266 61.2 60.68722076416016" preserveAspectRatio="xMidYMid meet" color-interpolation-filters="sRGB"><g><defs><linearGradient id="92" x1="0%" y1="0%" x2="100%" y2="0%"><stop offset="0%" stop-color="#fa71cd"></stop> <stop offset="100%" stop-color="#9b59b6"></stop></linearGradient><linearGradient id="93" x1="0%" y1="0%" x2="100%" y2="0%"><stop offset="0%" stop-color="#f9d423"></stop> <stop offset="100%" stop-color="#f83600"></stop></linearGradient><linearGradient id="94" x1="0%" y1="0%" x2="100%" y2="0%"><stop offset="0%" stop-color="#0064d2"></stop> <stop offset="100%" stop-color="#1cb0f6"></stop></linearGradient><linearGradient id="95" x1="0%" y1="0%" x2="100%" y2="0%"><stop offset="0%" stop-color="#f00978"></stop> <stop offset="100%" stop-color="#3f51b1"></stop></linearGradient><linearGradient id="96" x1="0%" y1="0%" x2="100%" y2="0%"><stop offset="0%" stop-color="#7873f5"></stop> <stop offset="100%" stop-color="#ec77ab"></stop></linearGradient><linearGradient id="97" x1="0%" y1="0%" x2="100%" y2="0%"><stop offset="0%" stop-color="#f9d423"></stop> <stop offset="100%" stop-color="#e14fad"></stop></linearGradient><linearGradient id="98" x1="0%" y1="0%" x2="100%" y2="0%"><stop offset="0%" stop-color="#009efd"></stop> <stop offset="100%" stop-color="#2af598"></stop></linearGradient><linearGradient id="99" x1="0%" y1="0%" x2="100%" y2="0%"><stop offset="0%" stop-color="#ffcc00"></stop> <stop offset="100%" stop-color="#00b140"></stop></linearGradient><linearGradient id="100" x1="0%" y1="0%" x2="100%" y2="0%"><stop offset="0%" stop-color="#d51007"></stop> <stop offset="100%" stop-color="#ff8177"></stop></linearGradient><linearGradient id="102" x1="0%" y1="0%" x2="100%" y2="0%"><stop offset="0%" stop-color="#a2b6df"></stop> <stop offset="100%" stop-color="#0c3483"></stop></linearGradient><linearGradient id="103" x1="0%" y1="0%" x2="100%" y2="0%"><stop offset="0%" stop-color="#7ac5d8"></stop> <stop offset="100%" stop-color="#eea2a2"></stop></linearGradient><linearGradient id="104" x1="0%" y1="0%" x2="100%" y2="0%"><stop offset="0%" stop-color="#00ecbc"></stop> <stop offset="100%" stop-color="#007adf"></stop></linearGradient><linearGradient id="105" x1="0%" y1="0%" x2="100%" y2="0%"><stop offset="0%" stop-color="#b88746"></stop> <stop offset="100%" stop-color="#fdf5a6"></stop></linearGradient></defs><g class="imagesvg isNoFont" transform="translate(140,95.25638961791992)"><g><rect fill="#333" fill-opacity="0" stroke-width="2" x="0" y="0" width="60" height="59.487220162201815" class="image-rect"></rect> <svg x="0" y="0" width="60" height="59.487220162201815" filtersec="colorsb8726014613" class="image-svg-svg primary" style="overflow: visible;"><svg xmlns="http://www.w3.org/2000/svg" viewBox="-0.0007252097129821777 0.005351066589355469 83.6407241821289 82.92606353759766"><path d="M26.88 14.35c1.08.07 1.55.83 2.11 1.4q18.59 18.54 37.13 37.1c3.14 3.14 3.13 3.2 0 6.39-2.6 2.67-5.35 5.2-7.86 7.95-1.7 1.86-2.85 1.44-4.44-.16Q36.57 49.65 19.17 32.38c-1.35-1.34-2.66-2.72-4-4-.9-.85-1-1.7-.14-2.57l11.16-11a3.91 3.91 0 0 1 .69-.46z" fill="#5273FF"></path><path d="M54.27 70.61a2.13 2.13 0 0 1-.84 1.52c-3.32 3.24-6.68 6.44-9.92 9.77-1.37 1.41-2.35 1.34-3.69 0Q20.41 62.42.92 43.05c-1.1-1.1-1.3-2-.13-3.12 3.3-3.25 6.59-6.52 9.79-9.86 1.31-1.38 2.36-1.45 3.71-.08q11.46 11.57 23 23.06Q45 60.78 52.78 68.46c.63.63 1.42 1.18 1.49 2.15z" fill="#5273FF"></path><path d="M54.45 12.33a2 2 0 0 1-.86 1.67c-3.46 3.46-6.94 6.89-10.37 10.36-1.11 1.12-2 1.17-3.14 0-3.18-3.25-6.44-6.42-9.65-9.65-2-2-1.9-2.55.06-4.41q4.86-4.6 9.59-9.35C41.17-.18 42-.38 43.14.81c3.49 3.53 7.08 7 10.61 10.43a5.46 5.46 0 0 1 .7 1.09zM83.64 41.56a7.29 7.29 0 0 1-.7 1c-3.57 3.57-7.16 7.11-10.71 10.69a1.8 1.8 0 0 1-3 0c-3.51-3.52-7-7-10.57-10.5a1.53 1.53 0 0 1 0-2.53l10.59-10.5c.79-.79 1.67-1.12 2.6-.21q5.66 5.55 11.3 11.14a3.5 3.5 0 0 1 .49.91zM56 14.51a2.25 2.25 0 0 1 1.66.78c3.61 3.51 7.2 7.05 10.8 10.58.87.85.58 1.59-.18 2.33-3.54 3.49-7.08 7-10.59 10.5-1.11 1.12-1.93 1.08-3.06-.1-3.38-3.52-6.87-6.94-10.36-10.36-.81-.8-1-1.5-.13-2.32 3.57-3.57 7.14-7.15 10.73-10.7a5.79 5.79 0 0 1 1.13-.71z" fill="#2FB4FF"></path></svg></svg> </g></g><defs v-gra="od"></defs></g></svg>